<svg xmlns="http://www.w3.org/2000/svg" version="1.1" xmlns:xlink="http://www.w3.org/1999/xlink" xmlns:svgjs="http://svgjs.dev/svgjs" width="1500" height="511" viewBox="0 0 1500 511"><g transform="matrix(1,0,0,1,-0.9090909090911055,-0.06848959121094822)"><svg viewBox="0 0 396 135" data-background-color="#8e4739" preserveAspectRatio="xMidYMid meet" height="511" width="1500" xmlns="http://www.w3.org/2000/svg" xmlns:xlink="http://www.w3.org/1999/xlink"><g id="tight-bounds" transform="matrix(1,0,0,1,0.24000000000003752,0.01809411900876512)"><svg viewBox="0 0 395.5199999999999 134.9638117619825" height="134.9638117619825" width="395.5199999999999"><g><svg viewBox="0 0 716.3215846163048 244.43135999999998" height="134.9638117619825" width="395.5199999999999"><g transform="matrix(1,0,0,1,320.80158461630475,57.51598615877535)"><svg viewBox="0 0 395.52 129.3993876824493" height="129.3993876824493" width="395.52"><g id="textblocktransform"><svg viewBox="0 0 395.52 129.3993876824493" height="129.3993876824493" width="395.52" id="textblock"><g><svg viewBox="0 0 395.52 129.3993876824493" height="129.3993876824493" width="395.52"><g transform="matrix(1,0,0,1,0,0)"><svg width="395.52" viewBox="2.15 -35.05 140.44 45.949999999999996" height="129.3993876824493" data-palette-color="#ddd2c6"><path d="M3 0.15L3 0.15Q2.55 0.15 2.35-0.2 2.15-0.55 2.15-0.95L2.15-0.95Q2.2-1.8 2.55-1.9 2.9-2 3.4-2L3.4-2Q5-2 5.65-2.58 6.3-3.15 6.48-4.03 6.65-4.9 6.65-5.85L6.65-5.85 6.65-25.7Q6.65-26.65 6.48-27.53 6.3-28.4 5.65-28.98 5-29.55 3.4-29.55L3.4-29.55Q2.9-29.55 2.55-29.65 2.2-29.75 2.15-30.6L2.15-30.6Q2.15-31 2.35-31.35 2.55-31.7 3-31.7L3-31.7Q4.6-31.65 6.03-31.6 7.45-31.55 8.95-31.55L8.95-31.55 23.4-31.55Q23.95-31.55 24.33-31.3 24.7-31.05 24.7-30.35L24.7-30.35 24.85-23.35Q24.85-22.85 24.38-22.6 23.9-22.35 23.5-22.35L23.5-22.35Q22.95-22.35 22.48-22.58 22-22.8 21.9-23.25L21.9-23.25Q21.6-25.5 21.13-26.88 20.65-28.25 19.73-28.88 18.8-29.5 17.05-29.55L17.05-29.55 11.6-29.55 11.6-16.55 20.55-16.55Q20.95-16.5 21.15-16.15 21.35-15.8 21.35-15.4L21.35-15.4Q21.35-15.05 21.15-14.73 20.95-14.4 20.55-14.4L20.55-14.4 11.6-14.4 11.6-5.85Q11.65-4.9 11.8-4.03 11.95-3.15 12.63-2.58 13.3-2 14.85-2L14.85-2Q15.35-2 15.7-1.9 16.05-1.8 16.1-0.95L16.1-0.95Q16.1-0.55 15.9-0.2 15.7 0.15 15.2 0.15L15.2 0.15Q12 0 9 0L9 0Q7.5 0 6.05 0.03 4.6 0.05 3 0.15ZM28.45 0.15L28.45 0.15Q28.1 0.15 27.87-0.18 27.65-0.5 27.65-0.85L27.65-0.85Q27.75-1.6 28.05-1.68 28.35-1.75 28.85-1.75L28.85-1.75Q30.25-1.75 30.75-2.23 31.25-2.7 31.32-3.5 31.4-4.3 31.4-5.15L31.4-5.15 31.4-16.6Q31.4-17.5 31.32-18.28 31.25-19.05 30.75-19.53 30.25-20 28.85-20L28.85-20Q28.4-20 28.02-20.13 27.65-20.25 27.65-21L27.65-21Q27.65-21.75 28.45-21.9L28.45-21.9Q30.75-22.25 31.97-22.6 33.2-22.95 33.85-23.2 34.5-23.45 35-23.5L35-23.5Q35.4-23.55 35.67-23.35 35.95-23.15 35.95-22.55L35.95-22.55 35.95-5.15Q35.95-4.3 36.02-3.5 36.1-2.7 36.62-2.23 37.15-1.75 38.55-1.75L38.55-1.75Q39-1.75 39.32-1.68 39.65-1.6 39.7-0.85L39.7-0.85Q39.7-0.5 39.5-0.18 39.3 0.15 38.9 0.15L38.9 0.15Q37.45 0.05 36.22 0.03 35 0 33.65 0L33.65 0Q32.3 0 31.1 0.03 29.9 0.05 28.45 0.15ZM33.4-29.05L33.4-29.05Q32-29.05 31.05-29.93 30.1-30.8 30.1-32.1L30.1-32.1Q30.1-33.25 31.25-34.15 32.4-35.05 33.85-35.05L33.85-35.05Q35.1-35.05 35.9-34.18 36.7-33.3 36.7-31.95L36.7-31.95Q36.7-30.75 35.75-29.9 34.8-29.05 33.4-29.05ZM51.39 0.85L51.39 0.85Q49.89 0.85 48.55 0.1 47.2-0.65 46.32-2.2 45.45-3.75 45.45-6.1L45.45-6.1 45.45-20.8 42.55-20.7Q42.2-20.7 42.02-20.98 41.84-21.25 41.84-21.6L41.84-21.6Q41.84-22.6 42.55-22.75L42.55-22.75Q44.39-23.1 45.34-23.93 46.3-24.75 46.82-25.9 47.34-27.05 47.8-28.4L47.8-28.4Q47.95-28.8 48.24-28.93 48.55-29.05 48.89-29.05L48.89-29.05Q49.2-29.05 49.57-28.9 49.95-28.75 49.95-28.35L49.95-28.35 49.59-22.65 55.45-23Q55.89-23.05 56.05-22.75 56.2-22.45 56.2-22.05L56.2-22.05Q56.2-21.55 56.02-21.05 55.84-20.55 55.59-20.55L55.59-20.55 49.99-20.7 49.99-5.5Q49.99-4.05 50.62-2.85 51.24-1.65 52.89-1.65L52.89-1.65Q53.45-1.65 54.14-1.75 54.84-1.85 55.64-2.2L55.64-2.2Q55.84-2.3 56.05-2.38 56.24-2.45 56.45-2.45L56.45-2.45Q56.84-2.45 57.05-2.13 57.25-1.8 57.39-1.45L57.39-1.45Q57.55-1 57.14-0.75L57.14-0.75Q55.59 0.25 54.3 0.55 52.99 0.85 51.39 0.85ZM71.44 10.9L71.44 10.9Q60.89 10.9 60.89 4.9L60.89 4.9Q60.89 3.25 61.94 1.98 62.99 0.7 64.74 0.7L64.74 0.7Q65.89 0.7 66.64 1.33 67.39 1.95 67.39 2.2L67.39 2.2Q67.39 2.3 67.02 2.65 66.64 3 66.27 3.6 65.89 4.2 65.89 5.2L65.89 5.2Q65.89 9.05 72.49 9.05L72.49 9.05Q76.24 9.05 78.32 7.75 80.39 6.45 80.39 3.8L80.39 3.8Q80.39 2.35 79.47 1.6 78.54 0.85 77.02 0.55 75.49 0.25 73.64 0.18 71.79 0.1 69.92 0.05 68.04 0 66.44-0.25L66.44-0.25Q64.69-0.55 63.52-1.43 62.34-2.3 62.34-4.3L62.34-4.3Q62.34-6.15 63.67-7.53 64.99-8.9 67.64-8.9L67.64-8.9Q64.44-10.15 63.37-11.95 62.29-13.75 62.29-15.65L62.29-15.65Q62.29-17.8 63.52-19.53 64.74-21.25 66.92-22.28 69.09-23.3 71.94-23.3L71.94-23.3Q73.34-23.3 74.87-23.08 76.39-22.85 77.49-22.3L77.49-22.3 84.34-23.6Q84.89-23.65 85.09-23.25 85.29-22.85 85.29-22.4L85.29-22.4Q85.29-21.75 85.09-21.13 84.89-20.5 84.54-20.5L84.54-20.5 79.59-20.7 79.59-20.6Q80.44-19.75 81.04-18.35 81.64-16.95 81.64-15.7L81.64-15.7Q81.64-13.3 80.27-11.55 78.89-9.8 76.77-8.88 74.64-7.95 72.34-7.95L72.34-7.95 70.14-7.95Q67.54-7.95 66.37-7.45 65.19-6.95 65.19-5.8L65.19-5.8Q65.19-4.9 65.82-4.42 66.44-3.95 68.09-3.85L68.09-3.85 74.94-3.6Q80.29-3.4 82.57-1.9 84.84-0.4 84.84 2.55L84.84 2.55Q84.84 5.2 83.17 7.08 81.49 8.95 78.47 9.93 75.44 10.9 71.44 10.9ZM71.94-9.4L71.94-9.4Q74.24-9.4 75.69-11.03 77.14-12.65 77.14-15.7L77.14-15.7Q77.14-18.5 75.67-20.13 74.19-21.75 71.89-21.75L71.89-21.75Q69.69-21.75 68.22-20.18 66.74-18.6 66.74-15.8L66.74-15.8Q66.74-12.75 68.22-11.08 69.69-9.4 71.94-9.4ZM97.69 0.6L97.69 0.6Q94.29 0.6 92.29-1.45 90.29-3.5 90.29-6.85L90.29-6.85 90.29-16.1Q90.29-17 90.22-17.78 90.14-18.55 89.64-19.03 89.14-19.5 87.74-19.5L87.74-19.5Q87.29-19.5 86.92-19.63 86.54-19.75 86.54-20.5L86.54-20.5Q86.54-21.25 87.34-21.4L87.34-21.4Q89.64-21.75 90.87-22.1 92.09-22.45 92.74-22.7 93.39-22.95 93.89-23L93.89-23Q94.29-23.05 94.57-22.85 94.84-22.65 94.84-22.05L94.84-22.05 94.84-6.9Q94.84-5.25 95.57-4.2 96.29-3.15 97.39-2.65 98.49-2.15 99.64-2.15L99.64-2.15Q101.39-2.15 102.69-2.78 103.99-3.4 104.79-4.23 105.59-5.05 105.84-5.6L105.84-5.6 105.84-16.1Q105.84-17 105.77-17.78 105.69-18.55 105.19-19.03 104.69-19.5 103.29-19.5L103.29-19.5Q102.84-19.5 102.47-19.63 102.09-19.75 102.09-20.5L102.09-20.5Q102.09-21.25 102.89-21.4L102.89-21.4Q105.19-21.75 106.42-22.1 107.64-22.45 108.29-22.7 108.94-22.95 109.44-23L109.44-23Q109.84-23.05 110.12-22.85 110.39-22.65 110.39-22.05L110.39-22.05 110.39-4.75Q110.39-1.8 114.34-1.8L114.34-1.8Q114.89-1.8 115.04-1.5 115.19-1.2 115.19-0.85L115.19-0.85Q115.19-0.15 114.34 0L114.34 0 106.29 0.55Q105.94 0.55 105.89 0.25 105.84-0.05 105.84-0.45L105.84-0.45 105.84-3.25 105.74-3.25Q104.79-2.35 103.72-1.45 102.64-0.55 101.22 0.03 99.79 0.6 97.69 0.6ZM119.74 10.9L119.74 10.9Q118.29 10.9 117.01 10.25 115.74 9.6 114.99 8.53 114.24 7.45 114.24 6.2L114.24 6.2Q114.29 4.85 114.81 4.13 115.34 3.4 115.99 3.13 116.64 2.85 117.09 2.8 117.54 2.75 117.44 2.75L117.44 2.75Q118.39 2.75 118.89 3.13 119.39 3.5 119.39 3.75L119.39 3.75Q119.39 3.85 119.01 4.23 118.64 4.6 118.59 5.55L118.59 5.55Q118.54 6.45 119.14 7.3 119.74 8.15 120.99 8.15L120.99 8.15Q122.39 8.15 123.54 7.13 124.69 6.1 125.59 4.6 126.49 3.1 127.14 1.7L127.14 1.7Q127.49 0.6 127.09-0.6L127.09-0.6Q125.89-3.3 124.74-6.35 123.59-9.4 122.51-12.25 121.44-15.1 120.39-17.25L120.39-17.25Q119.59-19.1 118.84-19.88 118.09-20.65 116.59-20.85L116.59-20.85Q115.94-20.95 115.71-21.05 115.49-21.15 115.44-21.8L115.44-21.8Q115.39-22.65 115.91-22.73 116.44-22.8 117.19-22.85L117.19-22.85Q120.29-23 122.04-21.95 123.79-20.9 124.89-18.4L124.89-18.4Q125.59-16.85 126.44-14.55 127.29-12.25 128.24-9.9 129.19-7.55 130.09-5.65L130.09-5.65 130.24-5.65 135.14-18.75Q135.64-20.2 135.19-20.55 134.74-20.9 133.24-20.9L133.24-20.9Q132.79-20.9 132.49-20.98 132.19-21.05 132.14-21.8L132.14-21.8Q132.14-22.1 132.31-22.45 132.49-22.8 132.84-22.8L132.84-22.8Q134.29-22.75 135.34-22.7 136.39-22.65 137.69-22.65L137.69-22.65Q138.59-22.65 139.14-22.68 139.69-22.7 140.29-22.73 140.89-22.75 141.84-22.8L141.84-22.8Q142.24-22.8 142.41-22.45 142.59-22.1 142.59-21.8L142.59-21.8Q142.54-21.05 142.21-20.98 141.89-20.9 141.49-20.9L141.49-20.9Q139.84-20.9 138.86-20.3 137.89-19.7 137.19-17.95L137.19-17.95Q137.19-17.95 136.66-16.65 136.14-15.35 135.29-13.25 134.44-11.15 133.49-8.83 132.54-6.5 131.69-4.4 130.84-2.3 130.29-0.95 129.74 0.4 129.69 0.5L129.69 0.5Q129.04 2.05 128.11 3.88 127.19 5.7 125.96 7.28 124.74 8.85 123.19 9.88 121.64 10.9 119.74 10.9Z" opacity="1" transform="matrix(1,0,0,1,0,0)" fill="#ddd2c6" class="wordmark-text-0" data-fill-palette-color="primary" id="text-0"></path></svg></g></svg></g></svg></g></svg></g><g><svg viewBox="0 0 244.43135999999998 244.43135999999998" height="244.43135999999998" width="244.43135999999998"><g><svg viewBox="0 0 244.43135999999998 244.43135999999998" height="244.43135999999998" width="244.43135999999998"><g transform="matrix(1,0,0,1,68.14663825117583,64.60265593644992)"><svg viewBox="0 0 108.13808349764834 115.22604812710014" height="115.22604812710014" width="108.13808349764834"><g><svg xmlns="http://www.w3.org/2000/svg" xmlns:xlink="http://www.w3.org/1999/xlink" version="1.1" x="0" y="0" viewBox="7.757000000000007 6.024999999999997 82.87492190041455 88.307" enable-background="new 0 0 100 100" xml:space="preserve" height="115.22604812710014" width="108.13808349764834" class="icon-dxe-0" data-fill-palette-color="accent" id="dxe-0"><g fill="#c9a07a" data-fill-palette-color="accent"><circle fill-rule="evenodd" clip-rule="evenodd" fill="#c9a07a" cx="59.221" cy="12.745" r="6.7" data-fill-palette-color="accent"></circle><path fill-rule="evenodd" clip-rule="evenodd" fill="#c9a07a" d="M85.945 84.721H79.143C70.1 67.702 73.481 51.185 76.61 42.305L78.21 42.665 79.875 35.277C79.979 34.984 80.043 34.678 80.08 34.366L81.541 27.882 74.536 26.303 73.668 30.158 63.985 32.371 58.166 22.933A4.13 4.13 0 0 0 55.702 21.111C55.148 20.809 54.561 20.558 53.912 20.428 50.452 19.725 47.069 21.97 46.368 25.438L42.47 44.728 39.666 57.228 25.537 56.606A4.806 4.806 0 0 0 25.115 66.208L43.263 67.005A4.766 4.766 0 0 0 48.161 63.256L49.856 55.699 53.478 63.502 44.977 80.16A4.8 4.8 0 0 0 45.085 84.722H12.562A4.805 4.805 0 0 0 12.562 94.332H85.945A4.807 4.807 0 0 0 85.945 84.721M53.532 84.529L63.103 65.786C63.775 64.47 63.803 62.916 63.181 61.574L55.479 45.008 57.096 37.007 58.482 39.255A4.15 4.15 0 0 0 62.938 41.122L71.647 39.131 71.207 41.089 73.097 41.514C69.893 50.838 66.658 67.422 75.107 84.722H53.417C53.454 84.655 53.498 84.598 53.532 84.529" data-fill-palette-color="accent"></path></g></svg></g></svg></g><g id="text-0"><path d="M38.578 90.118v0c-0.125 0.316-0.34 0.497-0.646 0.544-0.304 0.041-0.599 0.006-0.884-0.107v0c-0.586-0.274-0.867-0.549-0.842-0.827 0.029-0.269 0.114-0.583 0.256-0.941v0c0.446-1.129 0.557-2.004 0.332-2.626-0.231-0.624-0.631-1.119-1.202-1.485-0.569-0.372-1.19-0.691-1.864-0.957v0l-21.085-8.329c-0.668-0.264-1.339-0.455-2.015-0.575-0.667-0.123-1.295-0.034-1.883 0.266-0.589 0.301-1.106 1.015-1.553 2.145v0c-0.141 0.358-0.294 0.645-0.456 0.861-0.171 0.22-0.564 0.23-1.179 0.029v0c-0.285-0.113-0.525-0.288-0.719-0.526-0.191-0.244-0.225-0.524-0.1-0.839v0c0.485-1.121 0.944-2.177 1.379-3.171 0.434-0.993 0.861-2.021 1.281-3.083v0l6.063-15.349c0.153-0.388 0.371-0.681 0.653-0.879 0.281-0.198 0.671-0.198 1.168-0.002v0l7.5 2.784c0.352 0.139 0.55 0.41 0.594 0.813 0.044 0.403 0.01 0.748-0.103 1.033v0c-0.153 0.388-0.376 0.721-0.668 0.999-0.29 0.271-0.61 0.38-0.96 0.326v0c-1.674-0.416-3.066-0.65-4.175-0.702-1.105-0.044-2.009 0.175-2.711 0.655-0.7 0.474-1.313 1.327-1.841 2.557v0l-2.288 5.79 13.811 5.455 3.758-9.513c0.147-0.265 0.373-0.421 0.68-0.469 0.304-0.041 0.596-0.007 0.875 0.104v0c0.249 0.098 0.461 0.263 0.636 0.493 0.173 0.237 0.204 0.495 0.095 0.774v0l-3.759 9.514 9.077 3.586c0.688 0.23 1.363 0.412 2.026 0.547 0.66 0.141 1.291 0.054 1.893-0.263 0.596-0.319 1.111-1.028 1.545-2.126v0c0.139-0.352 0.291-0.639 0.456-0.861 0.171-0.22 0.564-0.23 1.179-0.029v0c0.285 0.113 0.524 0.291 0.715 0.535 0.194 0.238 0.22 0.536 0.079 0.894v0c-1.004 2.221-1.925 4.393-2.764 6.517v0c-0.42 1.062-0.823 2.11-1.21 3.143-0.387 1.033-0.768 2.131-1.144 3.295z" fill="#c9a07a" data-fill-palette-color="accent"></path><path d="M59.959 52.25v0c-0.195 0.184-0.439 0.243-0.733 0.18-0.294-0.064-0.532-0.193-0.715-0.388v0c-0.342-0.467-0.448-0.798-0.318-0.993 0.126-0.199 0.329-0.431 0.609-0.695v0c0.774-0.73 1.173-1.358 1.198-1.883 0.034-0.525-0.139-1.027-0.517-1.504-0.378-0.487-0.789-0.965-1.233-1.435v0l-8.974-9.513c-0.47-0.498-0.928-0.941-1.374-1.328-0.445-0.396-0.931-0.593-1.457-0.589-0.526-0.006-1.176 0.356-1.95 1.086v0c-0.252 0.237-0.513 0.421-0.785 0.551-0.271 0.121-0.602-0.024-0.991-0.437v0c-0.394-0.418-0.408-0.875-0.043-1.372v0c1.089-1.395 1.88-2.51 2.375-3.345 0.495-0.835 0.858-1.491 1.09-1.969 0.231-0.478 0.471-0.861 0.719-1.15v0c0.196-0.239 0.424-0.373 0.683-0.402 0.255-0.034 0.539 0.115 0.853 0.447v0l13.635 14.454c0.443 0.47 0.897 0.908 1.361 1.314 0.454 0.406 0.952 0.6 1.492 0.584 0.54-0.007 1.197-0.376 1.971-1.106v0c0.252-0.237 0.488-0.42 0.709-0.547 0.216-0.132 0.533-0.001 0.951 0.394v0c0.184 0.195 0.306 0.434 0.367 0.717 0.061 0.283-0.02 0.53-0.244 0.741v0c-0.856 0.7-1.63 1.363-2.322 1.989-0.692 0.626-1.411 1.291-2.156 1.994v0c-0.75 0.708-1.451 1.382-2.102 2.023-0.651 0.641-1.351 1.369-2.099 2.182zM41.182 24.116v0c-0.774 0.73-1.655 1.099-2.643 1.107-0.984 0.013-1.814-0.339-2.489-1.056v0c-0.605-0.641-0.821-1.513-0.651-2.616 0.166-1.098 0.65-2.026 1.452-2.783v0c0.693-0.654 1.491-0.944 2.394-0.872 0.898 0.068 1.699 0.474 2.401 1.22v0c0.627 0.665 0.901 1.478 0.823 2.44-0.079 0.972-0.508 1.825-1.287 2.56z" fill="#c9a07a" data-fill-palette-color="accent"></path><path d="M95.27 31.008v0c-1.066 0.409-2.179 0.532-3.34 0.369-1.168-0.167-2.275-0.682-3.319-1.547-1.045-0.864-1.887-2.131-2.528-3.8v0l-6.013-15.674-3.047 1.295c-0.25 0.096-0.476 0.071-0.679-0.075-0.197-0.148-0.343-0.347-0.439-0.597v0c-0.274-0.713-0.18-1.217 0.28-1.512v0c1.214-0.752 2.046-1.554 2.495-2.404 0.452-0.844 0.707-1.746 0.765-2.706 0.065-0.961 0.07-1.984 0.018-3.068v0c0.002-0.322 0.092-0.57 0.271-0.743 0.181-0.167 0.393-0.297 0.636-0.391v0c0.213-0.082 0.474-0.122 0.782-0.122 0.31 0.007 0.519 0.15 0.626 0.431v0l1.957 6.221 6.099-2.77c0.305-0.152 0.553-0.142 0.744 0.029 0.185 0.173 0.332 0.4 0.44 0.681v0c0.138 0.359 0.214 0.739 0.227 1.139 0.008 0.402-0.077 0.638-0.253 0.705v0l-6.028 2.135 6.218 16.203c0.395 1.03 0.979 1.886 1.75 2.568 0.772 0.682 1.743 0.799 2.913 0.351v0c0.39-0.15 0.822-0.354 1.296-0.613 0.472-0.265 0.943-0.631 1.413-1.098v0c0.114-0.121 0.234-0.237 0.36-0.348 0.119-0.109 0.249-0.19 0.388-0.243v0c0.286-0.11 0.544-0.076 0.773 0.102 0.235 0.175 0.452 0.368 0.652 0.578v0c0.231 0.275 0.238 0.555 0.019 0.842v0c-0.829 1.136-1.666 1.988-2.51 2.557-0.838 0.566-1.827 1.068-2.966 1.505z" fill="#c9a07a" data-fill-palette-color="accent"></path><path d="M130.491 38.892v0c-7.985-0.82-11.744-3.501-11.277-8.045v0c0.129-1.253 0.638-2.322 1.529-3.209 0.897-0.879 2.008-1.25 3.332-1.114v0c0.87 0.089 1.563 0.4 2.079 0.932 0.523 0.533 0.774 0.893 0.755 1.081v0c-0.007 0.071-0.167 0.226-0.48 0.462-0.313 0.237-0.632 0.568-0.958 0.994-0.332 0.425-0.537 1.017-0.615 1.777v0c-0.299 2.915 2.051 4.629 7.049 5.142v0c2.843 0.292 5.101 0.025 6.773-0.801 1.672-0.819 2.611-2.235 2.817-4.247v0c0.113-1.097-0.153-1.964-0.796-2.601-0.642-0.643-1.53-1.138-2.662-1.483-1.132-0.346-2.396-0.62-3.792-0.822-1.397-0.196-2.801-0.386-4.212-0.57-1.418-0.185-2.724-0.434-3.919-0.747v0c-1.301-0.363-2.362-0.921-3.183-1.675-0.821-0.753-1.154-1.89-0.998-3.408v0c0.144-1.402 0.769-2.571 1.875-3.508 1.113-0.935 2.672-1.3 4.678-1.094v0c-2.324-1.196-3.825-2.518-4.503-3.965-0.672-1.447-0.933-2.89-0.786-4.332v0c0.167-1.629 0.782-3.049 1.844-4.258 1.062-1.21 2.455-2.12 4.177-2.73 1.729-0.61 3.674-0.804 5.836-0.582v0c1.058 0.109 2.156 0.31 3.294 0.603 1.138 0.287 2.101 0.681 2.889 1.183v0l7.942-0.681c0.419 0.01 0.688 0.172 0.806 0.486 0.118 0.32 0.16 0.649 0.126 0.987v0c-0.051 0.493-0.175 0.969-0.373 1.428-0.198 0.459-0.43 0.674-0.697 0.647v0l-5.605-0.802-0.011 0.108c0.583 0.716 1.047 1.626 1.393 2.73 0.346 1.105 0.47 2.131 0.373 3.079v0c-0.187 1.818-0.87 3.335-2.052 4.552-1.175 1.224-2.603 2.101-4.285 2.631-1.682 0.536-3.396 0.714-5.142 0.535v0l-2.493-0.256c-1.973-0.203-3.425-0.158-4.353 0.134-0.928 0.285-1.437 0.863-1.526 1.732v0c-0.07 0.682 0.113 1.229 0.55 1.641 0.437 0.406 1.278 0.712 2.523 0.918v0l7.752 1.081c4.035 0.565 6.855 1.504 8.458 2.817 1.61 1.313 2.3 3.09 2.071 5.329v0c-0.206 2.006-1.018 3.651-2.435 4.936-1.412 1.292-3.301 2.19-5.669 2.695-2.368 0.505-5.067 0.602-8.099 0.29zM133.433 15.883v0c1.74 0.179 3.221-0.289 4.444-1.404 1.23-1.12 1.964-2.836 2.201-5.146v0c0.218-2.123-0.172-3.855-1.169-5.198-0.99-1.348-2.355-2.111-4.094-2.29v0c-1.668-0.171-3.122 0.283-4.361 1.363-1.239 1.08-1.968 2.681-2.186 4.804v0c-0.237 2.305 0.138 4.15 1.124 5.537 0.987 1.38 2.334 2.158 4.041 2.334z" fill="#c9a07a" data-fill-palette-color="accent"></path><path d="M171.58 41.98v0c-2.099-1.519-3.307-3.356-3.625-5.511-0.317-2.155 0.272-4.266 1.768-6.333v0l6.198-8.564c0.402-0.555 0.751-1.088 1.047-1.598 0.297-0.51 0.399-1.024 0.307-1.543-0.096-0.513-0.578-1.083-1.445-1.71v0c-0.275-0.199-0.5-0.422-0.675-0.67-0.179-0.242-0.1-0.596 0.236-1.061v0c0.333-0.46 0.782-0.558 1.348-0.293v0c1.574 0.809 2.817 1.378 3.73 1.708 0.909 0.336 1.622 0.569 2.138 0.702 0.507 0.134 0.929 0.297 1.264 0.491v0c0.262 0.15 0.437 0.348 0.523 0.596 0.081 0.244-0.012 0.551-0.28 0.921v0l-10.146 14.021c-0.735 1.015-1.115 2.008-1.141 2.98-0.017 0.97 0.199 1.856 0.65 2.658 0.455 0.796 1.039 1.453 1.753 1.969v0c1.078 0.78 2.159 1.268 3.242 1.464 1.078 0.192 2.048 0.214 2.913 0.066 0.859-0.152 1.487-0.341 1.885-0.569v0l7.036-9.723c0.402-0.555 0.751-1.088 1.047-1.598 0.302-0.506 0.404-1.021 0.307-1.542-0.096-0.513-0.575-1.081-1.437-1.704v0c-0.28-0.203-0.508-0.428-0.683-0.676-0.174-0.239-0.092-0.59 0.244-1.055v0c0.333-0.46 0.78-0.56 1.34-0.299v0c1.574 0.809 2.817 1.378 3.73 1.708 0.909 0.336 1.622 0.569 2.139 0.701 0.513 0.137 0.934 0.301 1.263 0.492v0c0.268 0.153 0.442 0.352 0.523 0.596 0.081 0.244-0.012 0.551-0.28 0.921v0l-11.586 16.011c-1.316 1.819-0.755 3.61 1.682 5.373v0c0.338 0.245 0.486 0.492 0.441 0.743-0.039 0.254-0.137 0.489-0.293 0.706v0c-0.31 0.428-0.761 0.501-1.353 0.217v0l-7.814-4.881c-0.217-0.157-0.274-0.339-0.172-0.547 0.102-0.208 0.243-0.436 0.423-0.685v0l1.871-2.585-0.095-0.069c-0.983 0.134-2.009 0.238-3.077 0.311-1.063 0.077-2.163-0.027-3.302-0.312-1.134-0.281-2.349-0.89-3.644-1.827z" fill="#c9a07a" data-fill-palette-color="accent"></path><path d="M187.135 73.824v0c-0.44-1.011-0.628-2.061-0.561-3.151 0.066-1.09 0.36-2.057 0.881-2.904 0.524-0.855 1.223-1.473 2.097-1.853v0c0.955-0.373 1.766-0.488 2.433-0.345 0.664 0.152 1.191 0.414 1.581 0.785 0.387 0.365 0.667 0.699 0.841 1 0.171 0.295 0.243 0.41 0.215 0.345v0c0.289 0.664 0.378 1.227 0.265 1.688-0.106 0.459-0.249 0.728-0.428 0.806v0c-0.066 0.029-0.288-0.031-0.665-0.18-0.375-0.143-0.903-0.087-1.583 0.167v0c-0.644 0.238-1.171 0.695-1.581 1.372-0.41 0.677-0.424 1.452-0.043 2.325v0c0.425 0.975 1.171 1.707 2.238 2.196 1.064 0.497 2.256 0.832 3.576 1.004 1.321 0.172 2.569 0.269 3.746 0.29v0c0.873-0.088 1.668-0.453 2.386-1.092v0c1.52-1.659 3.168-3.356 4.946-5.091 1.781-1.73 3.501-3.401 5.162-5.015 1.664-1.622 3.088-3.125 4.271-4.508v0c1.05-1.119 1.729-2.06 2.038-2.821 0.312-0.755 0.311-1.687-0.001-2.797v0c-0.132-0.483-0.198-0.821-0.196-1.014 0.004-0.187 0.226-0.397 0.664-0.631v0c0.579-0.288 0.972-0.26 1.179 0.084 0.213 0.341 0.452 0.768 0.718 1.278v0c1.049 2.113 1.471 3.94 1.266 5.481-0.196 1.544-1 3.08-2.413 4.607v0c-0.869 0.962-1.976 2.089-3.322 3.38-1.351 1.293-2.702 2.629-4.052 4.007-1.35 1.378-2.552 2.671-3.606 3.878v0l0.066 0.152 15.958-0.844c1.162-0.093 1.798-0.349 1.908-0.767 0.107-0.424-0.067-1.159-0.524-2.207v0c-0.136-0.311-0.225-0.582-0.268-0.812-0.037-0.233 0.199-0.482 0.71-0.747v0c0.209-0.091 0.46-0.129 0.751-0.114 0.3 0.019 0.503 0.151 0.611 0.396v0c0.405 1.027 0.751 1.912 1.039 2.655 0.285 0.751 0.624 1.579 1.017 2.482v0c0.274 0.628 0.504 1.133 0.692 1.514 0.185 0.375 0.374 0.769 0.568 1.183 0.2 0.411 0.463 0.941 0.789 1.589v0c0.12 0.275 0.085 0.529-0.106 0.762-0.187 0.224-0.385 0.381-0.595 0.472v0c-0.542 0.193-0.89 0.188-1.043-0.015-0.147-0.206-0.28-0.447-0.4-0.723v0c-0.503-1.155-1.111-1.979-1.824-2.472-0.716-0.5-1.794-0.728-3.234-0.684v0c0 0-0.531 0.014-1.594 0.043-1.068 0.031-2.466 0.067-4.192 0.107-1.724 0.046-3.541 0.091-5.452 0.133-1.914 0.051-3.734 0.096-5.46 0.137-1.724 0.046-3.139 0.083-4.245 0.109-1.112 0.029-1.709 0.04-1.79 0.032v0c-1.281 0.017-2.699-0.02-4.256-0.111-1.556-0.091-3.07-0.324-4.544-0.7-1.474-0.376-2.801-0.947-3.982-1.714-1.19-0.77-2.074-1.819-2.652-3.147z" fill="#c9a07a" data-fill-palette-color="accent"></path><path d="M12.885 150.461v0c-0.141-0.344-0.11-0.649 0.091-0.915 0.21-0.262 0.469-0.456 0.778-0.582v0c0.667-0.23 1.096-0.226 1.285 0.014 0.19 0.24 0.362 0.55 0.518 0.93v0c0.504 1.232 1.078 2.009 1.724 2.33 0.646 0.321 1.334 0.41 2.065 0.267 0.725-0.141 1.453-0.361 2.184-0.66v0l22.924-9.37c0.731-0.299 1.405-0.652 2.021-1.058 0.622-0.409 1.051-0.955 1.288-1.637 0.236-0.682 0.102-1.639-0.402-2.87v0c-0.156-0.381-0.25-0.723-0.282-1.027-0.033-0.304 0.27-0.607 0.908-0.91v0c0.308-0.126 0.626-0.168 0.953-0.126 0.336 0.046 0.574 0.241 0.715 0.586v0c0.467 1.247 0.905 2.429 1.312 3.545 0.411 1.108 0.852 2.239 1.323 3.393v0l6.818 16.682c0.175 0.429 0.224 0.825 0.147 1.188-0.075 0.369-0.381 0.663-0.919 0.883v0l-8.012 3.475c-0.387 0.158-0.748 0.094-1.083-0.192-0.344-0.289-0.579-0.588-0.705-0.896v0c-0.173-0.423-0.249-0.85-0.228-1.282 0.025-0.44 0.193-0.77 0.506-0.989v0c1.64-0.938 2.914-1.804 3.823-2.599 0.907-0.801 1.456-1.656 1.648-2.566 0.192-0.91 0.031-2.046-0.484-3.408v0l-2.57-6.289-15.005 6.133 4.222 10.33c0.084 0.325 0.025 0.621-0.177 0.886-0.21 0.262-0.469 0.456-0.778 0.582v0c-0.266 0.109-0.556 0.139-0.871 0.092-0.312-0.056-0.531-0.238-0.657-0.546v0l-4.222-10.329-9.876 4.036c-0.716 0.335-1.386 0.697-2.01 1.086-0.627 0.397-1.055 0.946-1.284 1.646-0.229 0.7-0.1 1.645 0.387 2.834v0c0.158 0.387 0.252 0.729 0.282 1.027 0.033 0.304-0.27 0.607-0.908 0.91v0c-0.308 0.126-0.629 0.169-0.962 0.129-0.33-0.048-0.573-0.263-0.728-0.643v0c-0.893-2.512-1.81-4.921-2.754-7.229v0c-0.472-1.154-0.945-2.286-1.419-3.396-0.475-1.11-1.003-2.265-1.586-3.465z" fill="#c9a07a" data-fill-palette-color="accent"></path><path d="M40.877 197.918v0c-0.21-0.196-0.292-0.457-0.247-0.782 0.049-0.329 0.172-0.599 0.368-0.808v0c0.49-0.399 0.846-0.535 1.067-0.409 0.226 0.122 0.491 0.326 0.796 0.611v0c0.853 0.799 1.563 1.196 2.13 1.191 0.577-0.005 1.114-0.23 1.612-0.676 0.503-0.441 0.995-0.919 1.477-1.433v0l9.763-10.423c0.513-0.548 0.964-1.077 1.354-1.589 0.399-0.512 0.582-1.056 0.55-1.631-0.032-0.567-0.475-1.25-1.328-2.049v0c-0.271-0.254-0.486-0.527-0.643-0.816-0.157-0.29-0.022-0.664 0.407-1.122v0c0.424-0.452 0.921-0.496 1.491-0.132v0c1.596 1.093 2.866 1.88 3.81 2.362 0.939 0.486 1.678 0.839 2.216 1.057 0.538 0.218 0.973 0.455 1.305 0.712v0c0.274 0.194 0.437 0.431 0.487 0.711 0.055 0.275-0.089 0.596-0.433 0.963v0l-14.836 15.838c-0.482 0.514-0.929 1.035-1.341 1.56-0.407 0.53-0.588 1.09-0.54 1.68 0.051 0.585 0.501 1.274 1.348 2.068v0c0.271 0.254 0.485 0.499 0.641 0.734 0.155 0.226 0.035 0.583-0.36 1.072v0c-0.196 0.21-0.45 0.356-0.761 0.44-0.302 0.084-0.574 0.012-0.818-0.216v0c-0.823-0.887-1.599-1.686-2.329-2.396-0.73-0.71-1.504-1.449-2.323-2.216v0c-0.819-0.767-1.6-1.485-2.342-2.154-0.742-0.668-1.583-1.384-2.521-2.147zM70.279 175.565v0c-0.853-0.799-1.317-1.734-1.394-2.808-0.081-1.068 0.249-1.998 0.989-2.788v0c0.656-0.7 1.588-0.994 2.797-0.881 1.208 0.104 2.253 0.568 3.134 1.393v0c0.757 0.709 1.129 1.558 1.115 2.547-0.009 0.984-0.398 1.885-1.165 2.704v0c-0.683 0.729-1.553 1.08-2.611 1.055-1.063-0.021-2.018-0.428-2.865-1.222z" fill="#c9a07a" data-fill-palette-color="accent"></path><path d="M83.991 226.149v0c-1.159-0.457-2.148-1.18-2.964-2.169-0.814-0.995-1.325-2.224-1.533-3.688-0.2-1.468 0.058-3.109 0.774-4.924v0l6.727-17.055-3.416-1.211c-0.267-0.105-0.424-0.294-0.471-0.565-0.056-0.268-0.031-0.535 0.074-0.802v0c0.306-0.777 0.753-1.117 1.338-1.019v0c1.538 0.298 2.8 0.273 3.786-0.074 0.988-0.354 1.861-0.894 2.617-1.62 0.759-0.732 1.517-1.552 2.275-2.459v0c0.237-0.264 0.493-0.395 0.766-0.393 0.269-0.006 0.54 0.045 0.813 0.153v0c0.231 0.091 0.469 0.252 0.715 0.482 0.24 0.228 0.299 0.497 0.176 0.806v0l-3.008 6.453 6.945 2.266c0.36 0.1 0.556 0.289 0.587 0.568 0.022 0.282-0.028 0.578-0.151 0.887v0c-0.151 0.382-0.373 0.74-0.665 1.074-0.287 0.336-0.527 0.465-0.722 0.389v0l-6.424-2.734-6.954 17.629c-0.443 1.123-0.608 2.244-0.494 3.362 0.119 1.12 0.816 1.932 2.091 2.434v0c0.425 0.168 0.923 0.319 1.494 0.453 0.577 0.137 1.229 0.193 1.953 0.171v0c0.183-0.019 0.365-0.028 0.547-0.026 0.173 0.005 0.339 0.039 0.497 0.101v0c0.304 0.12 0.485 0.335 0.545 0.646 0.051 0.315 0.085 0.63 0.101 0.945v0c-0.024 0.398-0.227 0.629-0.611 0.695v0c-1.508 0.303-2.809 0.372-3.902 0.208-1.099-0.167-2.267-0.494-3.506-0.983z" fill="#c9a07a" data-fill-palette-color="accent"></path><path d="M134.022 244.278v0c-8.737 0.766-13.324-1.338-13.76-6.311v0c-0.12-1.365 0.21-2.613 0.989-3.742 0.778-1.136 1.892-1.768 3.342-1.895v0c0.949-0.083 1.759 0.108 2.428 0.574 0.663 0.459 1.003 0.793 1.021 1.001v0c0.007 0.085-0.132 0.287-0.418 0.607-0.28 0.313-0.555 0.733-0.823 1.261-0.269 0.521-0.367 1.198-0.294 2.03v0c0.279 3.185 3.152 4.539 8.62 4.059v0c3.107-0.272 5.472-1.023 7.093-2.253 1.629-1.224 2.347-2.934 2.154-5.131v0c-0.105-1.203-0.569-2.079-1.389-2.629-0.822-0.557-1.874-0.904-3.157-1.04-1.289-0.136-2.701-0.169-4.234-0.101-1.539 0.076-3.088 0.159-4.646 0.25-1.557 0.097-3.008 0.1-4.352 0.008v0c-1.471-0.12-2.726-0.501-3.766-1.144-1.032-0.637-1.62-1.784-1.765-3.442v0c-0.134-1.534 0.298-2.918 1.296-4.152 0.992-1.233 2.587-1.946 4.785-2.139v0c-2.743-0.801-4.625-1.91-5.647-3.327-1.021-1.411-1.601-2.903-1.738-4.476v0c-0.156-1.781 0.21-3.431 1.099-4.95 0.895-1.52 2.206-2.781 3.933-3.784 1.726-1.009 3.769-1.618 6.128-1.825v0c1.157-0.101 2.378-0.113 3.662-0.036 1.278 0.078 2.392 0.305 3.342 0.68v0l8.371-2.364c0.452-0.079 0.773 0.04 0.965 0.357 0.198 0.317 0.313 0.66 0.346 1.031v0c0.047 0.54 0.009 1.074-0.116 1.602-0.117 0.534-0.322 0.814-0.614 0.84v0l-6.164 0.295 0.01 0.117c0.764 0.647 1.444 1.528 2.039 2.641 0.602 1.113 0.949 2.19 1.04 3.23v0c0.174 1.983-0.245 3.749-1.255 5.298-1.017 1.55-2.37 2.785-4.058 3.707-1.694 0.921-3.494 1.466-5.399 1.632v0l-2.73 0.24c-2.158 0.189-3.704 0.534-4.636 1.035-0.939 0.495-1.367 1.22-1.283 2.176v0c0.066 0.748 0.375 1.294 0.93 1.638 0.548 0.352 1.508 0.506 2.88 0.465v0l8.54-0.434c4.448-0.22 7.67 0.209 9.664 1.285 1.994 1.076 3.098 2.837 3.313 5.281v0c0.193 2.197-0.339 4.13-1.595 5.8-1.249 1.675-3.092 3.029-5.53 4.061-2.432 1.025-5.306 1.683-8.621 1.974zM132.435 218.997v0c1.905-0.167 3.399-0.976 4.484-2.427 1.078-1.451 1.507-3.437 1.286-5.959v0c-0.203-2.321-0.972-4.101-2.306-5.34-1.34-1.239-2.963-1.774-4.867-1.608v0c-1.827 0.16-3.294 0.944-4.402 2.351-1.108 1.414-1.56 3.281-1.357 5.602v0c0.221 2.522 1.004 4.426 2.348 5.71 1.344 1.278 2.948 1.835 4.814 1.671z" fill="#c9a07a" data-fill-palette-color="accent"></path><path d="M186.749 212.279v0c-2.314 1.621-4.642 2.212-6.982 1.771-2.34-0.44-4.31-1.802-5.908-4.084v0l-6.616-9.444c-0.431-0.615-0.855-1.17-1.274-1.665-0.424-0.492-0.92-0.778-1.486-0.859-0.565-0.09-1.326 0.2-2.283 0.87v0c-0.305 0.213-0.615 0.367-0.932 0.461-0.313 0.1-0.649-0.107-1.008-0.62v0c-0.359-0.513-0.302-1.011 0.172-1.495v0c1.401-1.332 2.435-2.411 3.1-3.235 0.669-0.819 1.165-1.47 1.489-1.952 0.324-0.482 0.644-0.861 0.96-1.138v0c0.25-0.223 0.517-0.331 0.802-0.323 0.281 0.003 0.565 0.21 0.853 0.621v0l10.839 15.474c0.786 1.122 1.676 1.87 2.67 2.241 0.999 0.368 1.99 0.458 2.974 0.271 0.988-0.182 1.872-0.546 2.652-1.093v0c1.192-0.835 2.082-1.777 2.67-2.826 0.591-1.044 0.963-2.037 1.115-2.981 0.152-0.943 0.178-1.662 0.078-2.158v0l-7.509-10.719c-0.431-0.615-0.855-1.17-1.274-1.665-0.424-0.492-0.917-0.78-1.478-0.865-0.57-0.086-1.334 0.205-2.291 0.876v0c-0.305 0.213-0.615 0.367-0.931 0.461-0.307 0.096-0.641-0.113-1.001-0.626v0c-0.359-0.513-0.302-1.011 0.172-1.494v0c1.401-1.332 2.435-2.411 3.1-3.236 0.669-0.819 1.165-1.47 1.49-1.951 0.318-0.478 0.636-0.856 0.951-1.133v0c0.25-0.223 0.517-0.331 0.802-0.322 0.281 0.003 0.565 0.21 0.853 0.621v0l12.378 17.67c1.408 2.01 3.456 2.073 6.145 0.19v0c0.374-0.262 0.686-0.329 0.935-0.201 0.244 0.132 0.45 0.318 0.618 0.558v0c0.333 0.476 0.244 0.968-0.267 1.479v0l-7.825 6.317c-0.241 0.168-0.448 0.162-0.622-0.018-0.18-0.177-0.365-0.402-0.556-0.674v0l-2.005-2.862-0.096 0.067c-0.216 1.068-0.477 2.163-0.783 3.285-0.302 1.128-0.802 2.227-1.501 3.299-0.694 1.068-1.757 2.103-3.19 3.107z" fill="#c9a07a" data-fill-palette-color="accent"></path><path d="M234.68 179.929v0c-0.499 1.099-1.214 2.022-2.147 2.767-0.93 0.739-1.931 1.209-3.004 1.41-1.07 0.195-2.078 0.079-3.023-0.35v0c-1.006-0.499-1.692-1.072-2.058-1.718-0.372-0.649-0.55-1.267-0.535-1.855 0.016-0.588 0.083-1.059 0.201-1.413 0.112-0.358 0.152-0.501 0.119-0.43v0c0.326-0.719 0.717-1.201 1.172-1.446 0.458-0.251 0.782-0.333 0.972-0.247v0c0.077 0.035 0.191 0.259 0.341 0.67 0.156 0.415 0.585 0.803 1.288 1.165v0c0.667 0.346 1.424 0.438 2.271 0.278 0.849-0.166 1.488-0.722 1.917-1.667v0c0.48-1.058 0.532-2.199 0.155-3.423-0.385-1.221-0.99-2.43-1.815-3.629-0.825-1.198-1.656-2.281-2.493-3.248v0c-0.717-0.648-1.595-1.025-2.636-1.131v0c-2.457-0.018-5.038-0.118-7.743-0.299-2.708-0.175-5.325-0.345-7.852-0.509-2.527-0.164-4.785-0.218-6.774-0.16v0c-1.677-0.03-2.936 0.105-3.774 0.406-0.847 0.304-1.605 0.988-2.275 2.053v0c-0.295 0.461-0.519 0.757-0.672 0.888-0.155 0.137-0.488 0.112-0.997-0.076v0c-0.661-0.25-0.927-0.586-0.801-1.008 0.121-0.425 0.293-0.931 0.517-1.518v0c0.946-2.401 2.118-4.084 3.515-5.048 1.397-0.964 3.233-1.432 5.506-1.404v0c1.411 0.002 3.132 0.077 5.165 0.225 2.035 0.142 4.107 0.258 6.216 0.348 2.103 0.087 4.027 0.118 5.773 0.092v0l0.077-0.169-12.351-12.32c-0.93-0.873-1.602-1.2-2.017-0.98-0.421 0.217-0.889 0.894-1.404 2.029v0c-0.156 0.345-0.315 0.616-0.478 0.815-0.156 0.202-0.527 0.191-1.114-0.032v0c-0.226-0.102-0.44-0.278-0.642-0.528-0.208-0.252-0.252-0.512-0.13-0.779v0c0.532-1.077 0.999-2.005 1.402-2.782 0.397-0.78 0.819-1.664 1.266-2.65v0c0.307-0.677 0.546-1.228 0.718-1.652 0.174-0.43 0.354-0.875 0.541-1.335 0.181-0.462 0.417-1.061 0.707-1.797v0c0.137-0.303 0.371-0.462 0.7-0.477 0.321-0.012 0.594 0.033 0.82 0.135v0c0.554 0.294 0.802 0.579 0.742 0.852-0.051 0.271-0.145 0.557-0.283 0.861v0c-0.566 1.248-0.792 2.346-0.677 3.294 0.123 0.945 0.728 1.982 1.813 3.112v0c0 0 0.403 0.423 1.209 1.268 0.8 0.843 1.851 1.947 3.153 3.311 1.296 1.362 2.663 2.802 4.101 4.322 1.43 1.523 2.793 2.965 4.089 4.327 1.302 1.364 2.369 2.486 3.203 3.366 0.833 0.88 1.279 1.358 1.338 1.434v0c0.95 1.018 1.958 2.192 3.024 3.522 1.061 1.327 1.978 2.724 2.752 4.193 0.774 1.469 1.28 2.967 1.52 4.494 0.247 1.524 0.045 3.005-0.608 4.443z" fill="#c9a07a" data-fill-palette-color="accent"></path><path d="M6.549 114.954c0-8.446 6.847-15.294 15.293-15.293 8.446 0 15.294 6.847 15.294 15.293 0 8.446-6.847 15.294-15.294 15.294-8.446 0-15.294-6.847-15.293-15.294z" fill="#c9a07a" data-fill-palette-color="accent"></path><path d="M209.18 114.954c0-8.446 6.847-15.294 15.293-15.293 8.446 0 15.294 6.847 15.294 15.293 0 8.446-6.847 15.294-15.294 15.294-8.446 0-15.294-6.847-15.293-15.294z" fill="#c9a07a" data-fill-palette-color="accent"></path></g><g id="text-1"></g></svg></g></svg></g></svg></g><defs></defs></svg><rect width="395.5199999999999" height="134.9638117619825" fill="none" stroke="none" visibility="hidden"></rect></g></svg></g></svg>